<?xml version="1.0" encoding="UTF-8" standalone="no"?>
<!-- Uploaded to: SVG Repo, www.svgrepo.com, Generator: SVG Repo Mixer Tools -->

<svg
   width="800px"
   height="800px"
   viewBox="0 0 24 24"
   fill="none"
   version="1.1"
   id="svg10"
   sodipodi:docname="cscn.svg"
   inkscape:version="1.2.2 (732a01da63, 2022-12-09)"
   xmlns:inkscape="http://www.inkscape.org/namespaces/inkscape"
   xmlns:sodipodi="http://sodipodi.sourceforge.net/DTD/sodipodi-0.dtd"
   xmlns="http://www.w3.org/2000/svg"
   xmlns:svg="http://www.w3.org/2000/svg">
  <defs
     id="defs14" />
  <sodipodi:namedview
     id="namedview12"
     pagecolor="#ffffff"
     bordercolor="#000000"
     borderopacity="0.25"
     inkscape:showpageshadow="2"
     inkscape:pageopacity="0.0"
     inkscape:pagecheckerboard="0"
     inkscape:deskcolor="#d1d1d1"
     showgrid="false"
     inkscape:zoom="1.2525"
     inkscape:cx="400"
     inkscape:cy="400"
     inkscape:window-width="2560"
     inkscape:window-height="1377"
     inkscape:window-x="1912"
     inkscape:window-y="-8"
     inkscape:window-maximized="1"
     inkscape:current-layer="svg10" />
  <path
     d="M4 15.8294V15.75V8C4 7.69114 4.16659 7.40629 4.43579 7.25487L4.45131 7.24614L11.6182 3.21475L11.6727 3.18411C11.8759 3.06979 12.1241 3.06979 12.3273 3.18411L19.6105 7.28092C19.8511 7.41625 20 7.67083 20 7.94687V8V15.75V15.8294C20 16.1119 19.8506 16.3733 19.6073 16.5167L12.379 20.7766C12.1451 20.9144 11.8549 20.9144 11.621 20.7766L4.39267 16.5167C4.14935 16.3733 4 16.1119 4 15.8294Z"
     stroke="#323232"
     stroke-width="2"
     id="path2" />
  <path
     d="M12 21V12"
     stroke="#323232"
     stroke-width="2"
     id="path4" />
  <path
     d="M12 12L4 7.5"
     stroke="#323232"
     stroke-width="2"
     id="path6" />
  <path
     d="M20 7.5L12 12"
     stroke="#323232"
     stroke-width="2"
     id="path8" />
  <path
     style="fill:#cccccc;stroke-width:0.798403"
     d="m 385.93259,726.96468 c -3.12629,-0.81967 -8.31552,-2.81543 -11.5316,-4.43503 -6.9658,-3.50792 -240.95792,-141.30926 -247.79758,-145.93157 -9.53249,-6.44216 -17.40168,-16.162 -21.69981,-26.80309 -4.53662,-11.23155 -4.35375,-4.31758 -4.12032,-155.78301 l 0.21472,-139.32136 2.23999,-6.38723 c 4.68432,-13.35715 14.03491,-25.77728 24.50652,-32.55136 2.41517,-1.56236 59.18164,-33.65331 126.14771,-71.31321 84.40669,-47.46803 123.83827,-69.225383 128.54291,-70.926737 6.39323,-2.312007 7.43404,-2.451753 17.96407,-2.411979 10.47666,0.03957 11.57821,0.194848 17.56487,2.475975 5.78852,2.205628 242.70353,134.696651 254.76474,142.473211 12.31999,7.9434 21.27496,20.586 25.05731,35.37583 1.5909,6.2208 1.61487,8.3842 1.60122,144.51098 -0.015,149.37641 0.16575,142.82523 -4.24143,153.73631 -4.32007,10.69541 -12.56244,20.85066 -22.14973,27.29019 -6.78221,4.55545 -240.74831,142.22895 -247.33897,145.54257 -11.99699,6.03176 -27.21289,7.73991 -39.72462,4.45951 z M 367.24898,530.73852 367.2325,419.16168 272.08804,365.66866 C 219.75859,336.2475 174.49654,310.81615 171.50572,309.15454 l -5.43786,-3.02111 v 108.93045 108.93044 l 100.39446,59.16053 c 55.21694,32.53828 100.4864,59.16052 100.5988,59.16052 0.11239,0 0.19693,-50.20958 0.18786,-111.57685 z m 168.08036,51.41107 98.20359,-57.90232 0.20245,-109.09005 0.20245,-109.09004 -4.19447,2.3821 c -2.30695,1.31015 -47.12859,26.52333 -99.60364,56.02927 -52.47505,29.50596 -95.85828,54.01409 -96.40719,54.46252 -0.78973,0.64518 -0.998,24.04243 -0.998,112.11531 v 111.3 l 2.19561,-1.15224 c 1.20758,-0.63372 46.38723,-27.20827 100.3992,-59.05455 z M 500.80565,305.61702 c 54.34531,-30.56309 98.71657,-55.64944 98.6028,-55.74746 -0.11377,-0.098 -45.03008,-25.38466 -99.81402,-56.19253 l -99.60717,-56.01431 -99.59443,56.02445 c -54.77693,30.81344 -99.6878,56.10037 -99.80192,56.19316 -0.11412,0.0928 44.61629,25.37877 99.40091,56.19106 58.98673,33.17566 100.09691,55.8373 100.8063,55.56861 0.65884,-0.24955 45.66223,-25.45989 100.00753,-56.02298 z"
     id="path135"
     transform="scale(0.03)" />
</svg>
