<?xml version="1.0" encoding="UTF-8" standalone="no"?>
<!-- Created with Inkscape (http://www.inkscape.org/) -->

<svg
   version="1.1"
   id="svg283"
   width="481.88235"
   height="481.88235"
   viewBox="0 0 481.88235 481.88235"
   sodipodi:docname="caret-up.svg"
   inkscape:version="1.2.2 (732a01da63, 2022-12-09)"
   xmlns:inkscape="http://www.inkscape.org/namespaces/inkscape"
   xmlns:sodipodi="http://sodipodi.sourceforge.net/DTD/sodipodi-0.dtd"
   xmlns="http://www.w3.org/2000/svg"
   xmlns:svg="http://www.w3.org/2000/svg">
  <defs
     id="defs287" />
  <sodipodi:namedview
     id="namedview285"
     pagecolor="#ffffff"
     bordercolor="#000000"
     borderopacity="0.25"
     inkscape:showpageshadow="2"
     inkscape:pageopacity="0.0"
     inkscape:pagecheckerboard="0"
     inkscape:deskcolor="#d1d1d1"
     showgrid="false"
     inkscape:zoom="1.4703194"
     inkscape:cx="316.93793"
     inkscape:cy="208.79816"
     inkscape:window-width="2560"
     inkscape:window-height="1377"
     inkscape:window-x="1912"
     inkscape:window-y="-8"
     inkscape:window-maximized="1"
     inkscape:current-layer="g289" />
  <g
     inkscape:groupmode="layer"
     inkscape:label="Image"
     id="g289">
    <path
       style="fill:#cccccc;stroke-width:0.480921"
       d="m 26.450631,376.33852 c -0.39675,-0.22337 -1.69524,-0.6825 -2.88552,-1.02029 -1.19028,-0.33779 -3.18491,-1.11616 -4.43253,-1.72972 -1.24761,-0.61357 -2.49643,-1.11557 -2.77515,-1.11557 -1.06826,0 -10.1054595,-9.69132 -10.1054595,-10.8369 0,-0.38786 -0.21641,-0.70519 -0.48092,-0.70519 -0.2645,0 -0.48092,-0.43283 -0.48092,-0.96185 0,-0.52901 -0.16231,-0.96352 -0.36069,-0.96559 -0.48797,-0.005 -1.56299,-2.38386 -1.56299,-3.45857 0,-0.47628 -0.21641,-0.86596 -0.48092,-0.86596 -0.26451,0 -0.48092,-0.64924 -0.48092,-1.44276 0,-0.79352 -0.21642,-1.44276 -0.48092,-1.44276 -0.29924,0 -0.48092,-2.72522 -0.48092,-7.21381 0,-4.48859 0.18168,-7.21381 0.48092,-7.21381 0.2645,0 0.48092,-0.64924 0.48092,-1.44276 0,-0.79352 0.21641,-1.44276 0.48092,-1.44276 0.26451,0 0.48092,-0.64925 0.48092,-1.44276 0,-0.79352 0.21641,-1.44277 0.48092,-1.44277 0.26451,0 0.48092,-0.43282 0.48092,-0.96184 0,-0.52901 0.21641,-0.96184 0.48092,-0.96184 0.26451,0 0.48092,-0.32215 0.48092,-0.71588 0,-0.77369 0.29464,-1.17308 4.40305,-5.96841 C 13.766211,318.23267 221.86853,110.37126 222.55506,110.37126 c 0.32563,0 0.59207,-0.21642 0.59207,-0.48092 0,-0.26451 0.2105,-0.48092 0.46777,-0.48092 0.43708,0 4.99334,-1.94394 6.85974,-2.92672 0.4593,-0.24185 1.37906,-0.43973 2.04391,-0.43973 0.66486,0 1.20883,-0.21641 1.20883,-0.48092 0,-0.29924 2.72522,-0.48092 7.21381,-0.48092 4.48859,0 7.21381,0.18168 7.21381,0.48092 0,0.26451 0.54397,0.48092 1.20882,0.48092 0.66486,0 1.58462,0.19788 2.04391,0.43973 1.8664,0.98278 6.42266,2.92672 6.85974,2.92672 0.25728,0 0.46778,0.21641 0.46778,0.48092 0,0.2645 0.24844,0.48092 0.55211,0.48092 0.65175,0 8.46375,7.77234 124.09284,123.463 48.5845,48.61037 89.12138,89.35635 90.08195,90.54663 0.96057,1.19027 2.0578,2.54534 2.43828,3.01125 0.38049,0.46591 0.6918,1.16925 0.6918,1.56299 0,0.39373 0.21641,0.71588 0.48092,0.71588 0.26451,0 0.48092,0.43283 0.48092,0.96184 0,0.52902 0.21641,0.96184 0.48092,0.96184 0.26451,0 0.48092,0.64925 0.48092,1.44277 0,0.79351 0.21642,1.44276 0.48092,1.44276 0.26451,0 0.48092,0.64924 0.48092,1.44276 0,0.79352 0.21642,1.44276 0.48092,1.44276 0.29924,0 0.48092,2.72522 0.48092,7.21381 0,4.48859 -0.18168,7.21381 -0.48092,7.21381 -0.2645,0 -0.48092,0.64924 -0.48092,1.44276 0,0.79352 -0.21641,1.44276 -0.48092,1.44276 -0.2645,0 -0.48092,0.38968 -0.48092,0.86596 0,1.07471 -1.07501,3.45349 -1.56299,3.45857 -0.19838,0.002 -0.36069,0.43658 -0.36069,0.96559 0,0.52902 -0.21642,0.96185 -0.48092,0.96185 -0.26451,0 -0.48092,0.31733 -0.48092,0.70519 0,1.14558 -9.0372,10.8369 -10.10545,10.8369 -0.27873,0 -1.52755,0.502 -2.77516,1.11557 -1.24762,0.61356 -3.24225,1.3921 -4.43253,1.73009 -1.19028,0.33799 -2.53993,0.80985 -2.99923,1.04857 -1.1541,0.59986 -13.69957,0.55808 -14.07345,-0.0469 -0.16347,-0.2645 -0.92092,-0.48092 -1.68322,-0.48092 -0.7623,0 -1.51975,-0.21641 -1.68322,-0.48092 -0.16348,-0.2645 -0.66318,-0.47753 -1.11046,-0.4734 -0.90625,0.008 -6.01246,-2.44807 -6.26366,-3.01327 -0.0882,-0.19836 -0.43565,-0.36067 -0.77218,-0.36067 -0.33653,0 -42.81085,-42.20078 -94.38736,-93.7795 -51.57653,-51.57873 -94.05733,-93.7795 -94.40179,-93.7795 -0.34445,0 -42.82382,42.20077 -94.39861,93.7795 -51.574789,51.57872 -94.049779,93.7795 -94.388879,93.7795 -0.3391,0 -0.68867,0.16231 -0.77684,0.36069 -0.2512,0.5652 -5.35741,3.02165 -6.26366,3.01327 -0.44728,-0.004 -0.94698,0.20889 -1.11046,0.4734 -0.16347,0.26451 -0.92092,0.48092 -1.68322,0.48092 -0.7623,0 -1.51975,0.21642 -1.68322,0.48092 -0.36247,0.58649 -13.14863,0.60291 -14.18716,0.0182 z"
       id="path293" />
  </g>
</svg>
