<?xml version="1.0" encoding="UTF-8" standalone="no"?>
<!-- Created with Inkscape (http://www.inkscape.org/) -->

<svg
   version="1.1"
   id="svg283"
   width="481.88235"
   height="481.88235"
   viewBox="0 0 481.88235 481.88235"
   sodipodi:docname="caret-right.svg"
   inkscape:version="1.2.2 (732a01da63, 2022-12-09)"
   xmlns:inkscape="http://www.inkscape.org/namespaces/inkscape"
   xmlns:sodipodi="http://sodipodi.sourceforge.net/DTD/sodipodi-0.dtd"
   xmlns="http://www.w3.org/2000/svg"
   xmlns:svg="http://www.w3.org/2000/svg">
  <defs
     id="defs287" />
  <sodipodi:namedview
     id="namedview285"
     pagecolor="#ffffff"
     bordercolor="#000000"
     borderopacity="0.25"
     inkscape:showpageshadow="2"
     inkscape:pageopacity="0.0"
     inkscape:pagecheckerboard="0"
     inkscape:deskcolor="#d1d1d1"
     showgrid="false"
     inkscape:zoom="1.4703194"
     inkscape:cx="316.93793"
     inkscape:cy="208.79816"
     inkscape:window-width="2560"
     inkscape:window-height="1377"
     inkscape:window-x="1912"
     inkscape:window-y="-8"
     inkscape:window-maximized="1"
     inkscape:current-layer="g289" />
  <g
     inkscape:groupmode="layer"
     inkscape:label="Image"
     id="g289">
    <path
       style="fill:#cccccc;stroke-width:0.480921"
       d="m 105.5413,26.448089 c 0.22337,-0.39675 0.6825,-1.69524 1.02029,-2.88552 0.33779,-1.19028 1.11616,-3.18491 1.72972,-4.43253 0.61357,-1.24761 1.11557,-2.49643 1.11557,-2.77515 0,-1.06826 9.69132,-10.1054596 10.8369,-10.1054596 0.38786,0 0.70519,-0.21641 0.70519,-0.48092 0,-0.2645 0.43283,-0.48092 0.96185,-0.48092 0.52901,0 0.96352,-0.16231 0.96559,-0.36069 0.005,-0.48797 2.38386,-1.56299 3.45857,-1.56299 0.47628,0 0.86596,-0.21641 0.86596,-0.48092 0,-0.26451 0.64924,-0.48092 1.44276,-0.48092 0.79352,0 1.44276,-0.21642 1.44276,-0.48092 0,-0.29924 2.72522,-0.48092 7.21381,-0.48092 4.48859,0 7.21381,0.18168 7.21381,0.48092 0,0.2645 0.64924,0.48092 1.44276,0.48092 0.79352,0 1.44276,0.21641 1.44276,0.48092 0,0.26451 0.64925,0.48092 1.44276,0.48092 0.79352,0 1.44277,0.21641 1.44277,0.48092 0,0.26451 0.43282,0.48092 0.96184,0.48092 0.52901,0 0.96184,0.21641 0.96184,0.48092 0,0.26451 0.32215,0.48092 0.71588,0.48092 0.77369,0 1.17308,0.29464 5.96841,4.40305 4.75405,4.0730296 212.61546,212.1753506 212.61546,212.8618806 0,0.32563 0.21642,0.59207 0.48092,0.59207 0.26451,0 0.48092,0.2105 0.48092,0.46777 0,0.43708 1.94394,4.99334 2.92672,6.85974 0.24185,0.4593 0.43973,1.37906 0.43973,2.04391 0,0.66486 0.21641,1.20883 0.48092,1.20883 0.29924,0 0.48092,2.72522 0.48092,7.21381 0,4.48859 -0.18168,7.21381 -0.48092,7.21381 -0.26451,0 -0.48092,0.54397 -0.48092,1.20882 0,0.66486 -0.19788,1.58462 -0.43973,2.04391 -0.98278,1.8664 -2.92672,6.42266 -2.92672,6.85974 0,0.25728 -0.21641,0.46778 -0.48092,0.46778 -0.2645,0 -0.48092,0.24844 -0.48092,0.55211 0,0.65175 -7.77234,8.46375 -123.463,124.09284 -48.61037,48.5845 -89.35635,89.12138 -90.54663,90.08195 -1.19027,0.96057 -2.54534,2.0578 -3.01125,2.43828 -0.46591,0.38049 -1.16925,0.6918 -1.56299,0.6918 -0.39373,0 -0.71588,0.21641 -0.71588,0.48092 0,0.26451 -0.43283,0.48092 -0.96184,0.48092 -0.52902,0 -0.96184,0.21641 -0.96184,0.48092 0,0.26451 -0.64925,0.48092 -1.44277,0.48092 -0.79351,0 -1.44276,0.21642 -1.44276,0.48092 0,0.26451 -0.64924,0.48092 -1.44276,0.48092 -0.79352,0 -1.44276,0.21642 -1.44276,0.48092 0,0.29924 -2.72522,0.48092 -7.21381,0.48092 -4.48859,0 -7.21381,-0.18168 -7.21381,-0.48092 0,-0.2645 -0.64924,-0.48092 -1.44276,-0.48092 -0.79352,0 -1.44276,-0.21641 -1.44276,-0.48092 0,-0.2645 -0.38968,-0.48092 -0.86596,-0.48092 -1.07471,0 -3.45349,-1.07501 -3.45857,-1.56299 -0.002,-0.19838 -0.43658,-0.36069 -0.96559,-0.36069 -0.52902,0 -0.96185,-0.21642 -0.96185,-0.48092 0,-0.26451 -0.31733,-0.48092 -0.70519,-0.48092 -1.14558,0 -10.8369,-9.0372 -10.8369,-10.10545 0,-0.27873 -0.502,-1.52755 -1.11557,-2.77516 -0.61356,-1.24762 -1.3921,-3.24225 -1.73009,-4.43253 -0.33799,-1.19028 -0.80985,-2.53993 -1.04857,-2.99923 -0.59986,-1.1541 -0.55808,-13.69957 0.0469,-14.07345 0.2645,-0.16347 0.48092,-0.92092 0.48092,-1.68322 0,-0.7623 0.21641,-1.51975 0.48092,-1.68322 0.2645,-0.16348 0.47753,-0.66318 0.4734,-1.11046 -0.008,-0.90625 2.44807,-6.01246 3.01327,-6.26366 0.19836,-0.0882 0.36067,-0.43565 0.36067,-0.77218 0,-0.33653 42.20078,-42.81085 93.7795,-94.38736 51.57873,-51.57653 93.7795,-94.05733 93.7795,-94.40179 0,-0.34445 -42.20077,-42.82382 -93.7795,-94.39861 -51.57872,-51.574791 -93.7795,-94.049781 -93.7795,-94.388881 0,-0.3391 -0.16231,-0.68867 -0.36069,-0.77684 -0.5652,-0.2512 -3.02165,-5.35741 -3.01327,-6.26366 0.004,-0.44728 -0.20889,-0.94698 -0.4734,-1.11046 -0.26451,-0.16347 -0.48092,-0.92092 -0.48092,-1.68322 0,-0.7623 -0.21642,-1.51975 -0.48092,-1.68322 -0.58649,-0.36247 -0.60291,-13.14863 -0.0182,-14.18716 z"
       id="path293" />
  </g>
</svg>
